# xmcd
#
# Track frame offsets: 
#        183
#        13408
#        24068
#        34950
#        47563
#        65340
#        82708
#        96813
#        108015
#        117475
#
# Disc length: 1729 seconds
#
# Revision: 4
# Processed by: cddbd v1.5.1PL2 Copyright (c) Steve Scherf et al.
# Submitted via: ExactAudioCopy v0.95a5
#
DISCID=6f06bf0a
DTITLE=Crystal Gayle - Crystal
DYEAR=1976
DGENRE=Country
TTITLE0=I'll Do It All Over Again
TTITLE1=Oh My Soul
TTITLE2=Ready For The Times To Get Better
TTITLE3=Come Home Daddy
TTITLE4=One More Time {Karneval)
TTITLE5=You Never Miss A Real Good Thing {Till He Says Goodbye}
TTITLE6=Right In The Palm Of Your Hand
TTITLE7=Forgettin'  Bout You
TTITLE8=Let's Do It Right
TTITLE9=I'm Not So Far Away
EXTD=more info\nMillenniumMusicProjectFormat, syntax as follows:\nTitl
EXTD=e{Subtitle}[info](Lyricist;Composer;Date,Artist,Location)[info]\n
EXTD=corrections to: windking3@yahoo.com
EXTT0=
EXTT1=
EXTT2=
EXTT3=
EXTT4=
EXTT5=
EXTT6=
EXTT7=
EXTT8=
EXTT9=
PLAYORDER=
